<svg xmlns="http://www.w3.org/2000/svg" xmlns:xlink="http://www.w3.org/1999/xlink" width="362" zoomAndPan="magnify" viewBox="0 0 271.5 56.249996" height="75" preserveAspectRatio="xMidYMid meet" version="1.0"><defs><g/><clipPath id="32434afcd4"><path d="M 1.632812 14 L 19 14 L 19 41 L 1.632812 41 Z M 1.632812 14 " clip-rule="nonzero"/></clipPath><clipPath id="89a0d7c50f"><path d="M 24 14 L 40.855469 14 L 40.855469 41 L 24 41 Z M 24 14 " clip-rule="nonzero"/></clipPath><clipPath id="2fdee0d6f3"><path d="M 13 9.128906 L 34 9.128906 L 34 25 L 13 25 Z M 13 9.128906 " clip-rule="nonzero"/></clipPath><clipPath id="123d837f51"><path d="M 8 31 L 30 31 L 30 46.136719 L 8 46.136719 Z M 8 31 " clip-rule="nonzero"/></clipPath></defs><g fill="#022178" fill-opacity="1"><g transform="translate(56.670516, 38.266959)"><g><path d="M 16.296875 0 L 11.046875 -7.5625 L 5.875 0 L 0.09375 0 L 8.15625 -11.078125 L 0.5 -21.78125 L 6.21875 -21.78125 L 11.234375 -14.71875 L 16.140625 -21.78125 L 21.59375 -21.78125 L 14 -11.265625 L 22.125 0 Z M 16.296875 0 "/></g></g></g><g fill="#022178" fill-opacity="1"><g transform="translate(79.499512, 38.266959)"><g><path d="M 12.125 -16.984375 C 13.6875 -16.984375 15.101562 -16.625 16.375 -15.90625 C 17.65625 -15.195312 18.65625 -14.191406 19.375 -12.890625 C 20.101562 -11.597656 20.46875 -10.09375 20.46875 -8.375 C 20.46875 -6.644531 20.101562 -5.128906 19.375 -3.828125 C 18.65625 -2.535156 17.65625 -1.53125 16.375 -0.8125 C 15.101562 -0.101562 13.6875 0.25 12.125 0.25 C 9.988281 0.25 8.3125 -0.421875 7.09375 -1.765625 L 7.09375 6.03125 L 2.234375 6.03125 L 2.234375 -16.734375 L 6.875 -16.734375 L 6.875 -14.8125 C 8.070312 -16.257812 9.820312 -16.984375 12.125 -16.984375 Z M 11.296875 -3.734375 C 12.535156 -3.734375 13.550781 -4.148438 14.34375 -4.984375 C 15.144531 -5.828125 15.546875 -6.957031 15.546875 -8.375 C 15.546875 -9.78125 15.144531 -10.898438 14.34375 -11.734375 C 13.550781 -12.578125 12.535156 -13 11.296875 -13 C 10.046875 -13 9.019531 -12.578125 8.21875 -11.734375 C 7.425781 -10.898438 7.03125 -9.78125 7.03125 -8.375 C 7.03125 -6.957031 7.425781 -5.828125 8.21875 -4.984375 C 9.019531 -4.148438 10.046875 -3.734375 11.296875 -3.734375 Z M 11.296875 -3.734375 "/></g></g></g><g fill="#022178" fill-opacity="1"><g transform="translate(101.582058, 38.266959)"><g><path d="M 18.578125 -11.328125 C 19.816406 -10.929688 20.785156 -10.269531 21.484375 -9.34375 C 22.191406 -8.425781 22.546875 -7.289062 22.546875 -5.9375 C 22.546875 -4.03125 21.804688 -2.5625 20.328125 -1.53125 C 18.847656 -0.507812 16.6875 0 13.84375 0 L 2.578125 0 L 2.578125 -21.78125 L 13.21875 -21.78125 C 15.875 -21.78125 17.910156 -21.269531 19.328125 -20.25 C 20.753906 -19.238281 21.46875 -17.859375 21.46875 -16.109375 C 21.46875 -15.054688 21.210938 -14.113281 20.703125 -13.28125 C 20.191406 -12.457031 19.484375 -11.804688 18.578125 -11.328125 Z M 7.59375 -17.984375 L 7.59375 -12.84375 L 12.59375 -12.84375 C 13.84375 -12.84375 14.785156 -13.0625 15.421875 -13.5 C 16.066406 -13.9375 16.390625 -14.582031 16.390625 -15.4375 C 16.390625 -16.28125 16.066406 -16.914062 15.421875 -17.34375 C 14.785156 -17.769531 13.84375 -17.984375 12.59375 -17.984375 Z M 13.46875 -3.796875 C 14.800781 -3.796875 15.800781 -4.015625 16.46875 -4.453125 C 17.144531 -4.890625 17.484375 -5.5625 17.484375 -6.46875 C 17.484375 -8.269531 16.144531 -9.171875 13.46875 -9.171875 L 7.59375 -9.171875 L 7.59375 -3.796875 Z M 13.46875 -3.796875 "/></g></g></g><g fill="#022178" fill-opacity="1"><g transform="translate(125.997264, 38.266959)"><g><path d="M 6.875 -14.53125 C 7.457031 -15.332031 8.238281 -15.941406 9.21875 -16.359375 C 10.207031 -16.773438 11.34375 -16.984375 12.625 -16.984375 L 12.625 -12.5 C 12.09375 -12.539062 11.734375 -12.5625 11.546875 -12.5625 C 10.148438 -12.5625 9.054688 -12.171875 8.265625 -11.390625 C 7.484375 -10.617188 7.09375 -9.457031 7.09375 -7.90625 L 7.09375 0 L 2.234375 0 L 2.234375 -16.734375 L 6.875 -16.734375 Z M 6.875 -14.53125 "/></g></g></g><g fill="#022178" fill-opacity="1"><g transform="translate(140.024368, 38.266959)"><g><path d="M 8.984375 -16.984375 C 11.578125 -16.984375 13.566406 -16.363281 14.953125 -15.125 C 16.347656 -13.894531 17.046875 -12.035156 17.046875 -9.546875 L 17.046875 0 L 12.5 0 L 12.5 -2.078125 C 11.59375 -0.523438 9.894531 0.25 7.40625 0.25 C 6.113281 0.25 4.992188 0.03125 4.046875 -0.40625 C 3.109375 -0.84375 2.390625 -1.441406 1.890625 -2.203125 C 1.398438 -2.972656 1.15625 -3.847656 1.15625 -4.828125 C 1.15625 -6.378906 1.738281 -7.597656 2.90625 -8.484375 C 4.082031 -9.378906 5.894531 -9.828125 8.34375 -9.828125 L 12.1875 -9.828125 C 12.1875 -10.890625 11.863281 -11.703125 11.21875 -12.265625 C 10.582031 -12.835938 9.625 -13.125 8.34375 -13.125 C 7.445312 -13.125 6.566406 -12.984375 5.703125 -12.703125 C 4.847656 -12.421875 4.117188 -12.046875 3.515625 -11.578125 L 1.765625 -14.96875 C 2.679688 -15.601562 3.773438 -16.097656 5.046875 -16.453125 C 6.328125 -16.804688 7.640625 -16.984375 8.984375 -16.984375 Z M 8.625 -3.015625 C 9.445312 -3.015625 10.179688 -3.207031 10.828125 -3.59375 C 11.472656 -3.976562 11.925781 -4.539062 12.1875 -5.28125 L 12.1875 -7 L 8.859375 -7 C 6.867188 -7 5.875 -6.347656 5.875 -5.046875 C 5.875 -4.421875 6.117188 -3.925781 6.609375 -3.5625 C 7.097656 -3.195312 7.769531 -3.015625 8.625 -3.015625 Z M 8.625 -3.015625 "/></g></g></g><g fill="#022178" fill-opacity="1"><g transform="translate(159.836466, 38.266959)"><g><path d="M 12.40625 -16.984375 C 14.488281 -16.984375 16.164062 -16.359375 17.4375 -15.109375 C 18.707031 -13.867188 19.34375 -12.023438 19.34375 -9.578125 L 19.34375 0 L 14.5 0 L 14.5 -8.828125 C 14.5 -10.160156 14.207031 -11.148438 13.625 -11.796875 C 13.039062 -12.453125 12.203125 -12.78125 11.109375 -12.78125 C 9.878906 -12.78125 8.898438 -12.398438 8.171875 -11.640625 C 7.453125 -10.890625 7.09375 -9.769531 7.09375 -8.28125 L 7.09375 0 L 2.234375 0 L 2.234375 -16.734375 L 6.875 -16.734375 L 6.875 -14.78125 C 7.519531 -15.476562 8.316406 -16.019531 9.265625 -16.40625 C 10.222656 -16.789062 11.269531 -16.984375 12.40625 -16.984375 Z M 12.40625 -16.984375 "/></g></g></g><g fill="#022178" fill-opacity="1"><g transform="translate(181.950115, 38.266959)"><g><path d="M 19.28125 -23.078125 L 19.28125 0 L 14.65625 0 L 14.65625 -1.921875 C 13.445312 -0.472656 11.703125 0.25 9.421875 0.25 C 7.847656 0.25 6.421875 -0.0976562 5.140625 -0.796875 C 3.867188 -1.503906 2.867188 -2.507812 2.140625 -3.8125 C 1.421875 -5.125 1.0625 -6.644531 1.0625 -8.375 C 1.0625 -10.09375 1.421875 -11.601562 2.140625 -12.90625 C 2.867188 -14.21875 3.867188 -15.222656 5.140625 -15.921875 C 6.421875 -16.628906 7.847656 -16.984375 9.421875 -16.984375 C 11.554688 -16.984375 13.226562 -16.3125 14.4375 -14.96875 L 14.4375 -23.078125 Z M 10.265625 -3.734375 C 11.484375 -3.734375 12.5 -4.148438 13.3125 -4.984375 C 14.125 -5.828125 14.53125 -6.957031 14.53125 -8.375 C 14.53125 -9.78125 14.125 -10.898438 13.3125 -11.734375 C 12.5 -12.578125 11.484375 -13 10.265625 -13 C 9.023438 -13 8 -12.578125 7.1875 -11.734375 C 6.375 -10.898438 5.96875 -9.78125 5.96875 -8.375 C 5.96875 -6.957031 6.375 -5.828125 7.1875 -4.984375 C 8 -4.148438 9.023438 -3.734375 10.265625 -3.734375 Z M 10.265625 -3.734375 "/></g></g></g><g fill="#022178" fill-opacity="1"><g transform="translate(204.094871, 38.266959)"><g><path d="M 4.078125 0.25 C 3.222656 0.25 2.503906 -0.0390625 1.921875 -0.625 C 1.347656 -1.207031 1.0625 -1.929688 1.0625 -2.796875 C 1.0625 -3.691406 1.347656 -4.410156 1.921875 -4.953125 C 2.503906 -5.503906 3.222656 -5.78125 4.078125 -5.78125 C 4.921875 -5.78125 5.632812 -5.503906 6.21875 -4.953125 C 6.800781 -4.410156 7.09375 -3.691406 7.09375 -2.796875 C 7.09375 -1.929688 6.800781 -1.207031 6.21875 -0.625 C 5.632812 -0.0390625 4.921875 0.25 4.078125 0.25 Z M 4.078125 0.25 "/></g></g></g><g fill="#022178" fill-opacity="1"><g transform="translate(212.865729, 38.266959)"><g><path d="M 16.921875 -4.671875 L 6.8125 -4.671875 L 4.890625 0 L -0.28125 0 L 9.421875 -21.78125 L 14.40625 -21.78125 L 24.140625 0 L 18.859375 0 Z M 15.34375 -8.5 L 11.890625 -16.828125 L 8.4375 -8.5 Z M 15.34375 -8.5 "/></g></g></g><g fill="#022178" fill-opacity="1"><g transform="translate(237.312035, 38.266959)"><g><path d="M 2.578125 -21.78125 L 7.625 -21.78125 L 7.625 0 L 2.578125 0 Z M 2.578125 -21.78125 "/></g></g></g><g clip-path="url(#32434afcd4)"><path fill="#022178" d="M 18.476562 27.632812 L 7.605469 14.390625 L 1.644531 14.390625 L 12.519531 27.632812 L 1.644531 40.871094 L 7.605469 40.871094 Z M 18.476562 27.632812 " fill-opacity="1" fill-rule="nonzero"/></g><g clip-path="url(#89a0d7c50f)"><path fill="#022178" d="M 34.957031 14.390625 L 24.078125 27.632812 L 34.957031 40.871094 L 40.910156 40.871094 L 30.035156 27.632812 L 40.910156 14.390625 Z M 34.957031 14.390625 " fill-opacity="1" fill-rule="nonzero"/></g><g clip-path="url(#2fdee0d6f3)"><path fill="#022178" d="M 21.28125 24.21875 L 29.355469 14.390625 L 33.679688 9.128906 L 27.71875 9.128906 L 23.398438 14.390625 L 21.28125 16.972656 L 19.164062 14.390625 L 13.207031 14.390625 Z M 21.28125 24.21875 " fill-opacity="1" fill-rule="nonzero"/></g><g clip-path="url(#123d837f51)"><path fill="#022178" d="M 21.28125 31.042969 L 13.207031 40.871094 L 8.875 46.136719 L 14.835938 46.136719 L 19.164062 40.871094 L 21.28125 38.289062 L 23.398438 40.871094 L 29.355469 40.871094 Z M 21.28125 31.042969 " fill-opacity="1" fill-rule="nonzero"/></g><path fill="#022178" d="M 21.28125 38.289062 L 24.265625 34.664062 L 21.28125 31.042969 L 18.476562 27.632812 L 13.207031 28.460938 Z M 21.28125 38.289062 " fill-opacity="1" fill-rule="nonzero"/></svg>